<svg version="1.1" id="Layer_1" xmlns="http://www.w3.org/2000/svg" xmlns:xlink="http://www.w3.org/1999/xlink" x="0px" y="0px"
	 width="100%" viewBox="0 0 830 165" enable-background="new 0 0 830 165" xml:space="preserve">
<path fill="#FEFEFE" opacity="1.000000" stroke="none" 
	d="
M598.000000,166.000000 
	C398.666687,166.000000 199.833374,166.000000 1.000053,166.000000 
	C1.000036,111.000031 1.000036,56.000061 1.000018,1.000068 
	C277.666595,1.000045 554.333191,1.000045 830.999878,1.000023 
	C830.999878,55.999928 830.999878,110.999855 830.999939,165.999893 
	C753.500000,166.000000 676.000000,166.000000 598.000000,166.000000 
M215.194748,112.715424 
	C216.503296,112.964325 217.804031,113.369301 219.121750,113.435448 
	C225.226685,113.741890 231.081329,112.625465 234.331879,106.975853 
	C237.627426,101.248016 234.299576,96.506393 230.588074,92.160484 
	C229.296249,90.647873 227.608521,89.186455 227.054047,87.405182 
	C226.391907,85.278030 225.915070,82.329735 226.912079,80.671570 
	C227.846054,79.118225 230.815125,78.798248 232.877441,77.909538 
	C233.908646,77.465179 234.914871,76.962860 235.932388,76.486740 
	C235.265182,75.304680 234.793030,73.329742 233.889694,73.107521 
	C232.073410,72.660698 229.552811,72.466881 228.148285,73.404770 
	C221.835953,77.619911 217.848190,83.060524 222.629929,91.486641 
	C223.685226,93.346252 225.298996,94.881599 226.576935,96.623955 
	C228.433472,99.155212 230.696274,101.623047 228.537964,105.104584 
	C226.283783,108.740685 222.900024,109.463310 218.995529,108.807930 
	C217.307587,108.524612 215.632431,108.165123 213.401733,107.733986 
	C213.780487,109.981987 214.020920,111.408928 213.551453,112.247238 
	C211.663300,112.700562 209.775146,113.153885 206.511215,113.937523 
	C208.811417,103.252632 210.942627,93.352692 213.073853,83.452759 
	C212.673828,83.143211 212.273788,82.833672 211.873764,82.524124 
	C210.783600,83.698921 209.472839,84.736862 208.643494,86.073486 
	C205.851440,90.573288 203.573502,95.437660 200.406693,99.641083 
	C198.699753,101.906769 195.583038,103.110359 193.102371,104.793144 
	C192.488449,101.685013 191.294571,98.556404 191.403381,95.473778 
	C191.548370,91.366409 192.881561,87.313118 193.312317,83.195580 
	C193.426605,82.103325 192.104691,80.860817 191.442200,79.687302 
	C190.385361,80.483032 188.480377,81.205215 188.404007,82.085968 
	C187.706863,90.125381 186.762329,98.214012 187.069382,106.243172 
	C187.251862,111.014618 191.545441,112.624672 195.943970,110.499847 
	C197.935516,109.537788 199.707306,108.120811 201.550888,106.928253 
	C203.394958,113.405899 200.888275,117.203629 195.655746,120.690453 
	C190.040100,124.432571 185.076721,129.266678 180.254822,134.053497 
	C175.828308,138.447830 172.865997,143.851044 172.335159,150.283340 
	C171.754868,157.314957 175.907745,161.525009 182.650665,159.643326 
	C186.576294,158.547821 190.597565,156.065353 193.427933,153.108261 
	C201.050964,145.143951 204.260696,134.877914 205.688232,124.234077 
	C206.282639,119.801971 207.377304,117.212631 212.080399,116.616516 
	C213.690704,116.412415 216.606537,115.860359 215.194748,112.715424 
M333.710175,39.257244 
	C330.793793,53.904900 327.469666,68.487724 325.126465,83.226501 
	C323.882629,91.050468 324.176147,99.144897 324.172150,107.117432 
	C324.171356,108.671562 325.980347,111.482307 326.988708,111.497841 
	C328.655548,111.523514 330.614288,110.006348 331.950409,108.647919 
	C333.043793,107.536308 333.131073,105.478569 334.152374,104.243958 
	C336.584930,101.303413 339.306244,98.601768 342.722992,94.931198 
	C344.121704,98.352989 345.051849,100.237061 345.673431,102.217934 
	C348.160492,110.143509 350.427368,111.116730 358.021729,107.376366 
	C359.042389,106.873688 360.088135,106.422005 361.076904,105.967567 
	C364.971802,110.757492 367.594818,111.142906 372.573242,107.667999 
	C374.206757,106.527809 375.700043,105.188416 377.277985,103.966591 
	C381.103821,101.004173 384.941711,98.057320 388.674652,95.181290 
	C389.682983,100.578468 390.355713,105.259399 391.562195,109.798447 
	C391.829041,110.802269 393.983765,111.304291 395.269165,112.037376 
	C395.868896,110.509117 397.421204,108.464447 396.917145,107.534607 
	C393.017975,100.342171 395.577942,93.692787 397.893433,86.876076 
	C398.905090,83.897659 402.447357,79.019722 394.510895,80.620369 
	C394.191040,80.684875 393.588501,80.237030 393.389648,79.877487 
	C390.824280,75.238838 386.812164,76.570427 383.358765,77.906067 
	C373.195251,81.836899 366.353302,89.519714 362.198883,99.274559 
	C360.507416,103.246269 357.593231,103.316566 354.896759,103.074600 
	C353.045441,102.908478 350.607910,100.838242 349.845673,99.025024 
	C348.802399,96.543373 349.147858,93.492218 348.812225,90.695480 
	C348.278198,86.246262 346.644257,85.379921 342.934967,87.740532 
	C340.839569,89.074066 338.976044,90.768654 336.982361,92.266319 
	C335.119263,93.665848 333.222229,95.020119 330.374481,97.099373 
	C329.149689,85.494202 330.594849,76.046028 336.719330,67.454903 
	C340.283478,62.455376 344.287079,57.509850 346.541656,51.914894 
	C348.483185,47.096813 348.923859,41.351940 348.613129,36.100552 
	C348.481598,33.877239 345.078705,31.017567 342.535645,29.971769 
	C339.169983,28.587690 337.268463,31.755569 335.808655,34.462570 
	C335.103119,35.770863 334.554138,37.163574 333.710175,39.257244 
M134.640610,104.298927 
	C132.619568,98.136414 135.026001,92.579651 136.894165,86.901588 
	C137.896301,83.855782 141.390656,79.088249 133.518982,80.591171 
	C133.186615,80.654625 132.592514,80.222176 132.372055,79.865273 
	C129.173096,74.686119 124.676872,76.720657 120.956886,78.403038 
	C111.988113,82.459213 106.061440,89.726601 101.342354,98.233482 
	C98.993217,102.468155 95.995293,106.394699 92.920006,110.157555 
	C90.670570,112.909912 87.911491,112.623451 87.107475,108.965454 
	C86.046051,104.136391 85.557709,99.150116 85.210159,94.204216 
	C84.863953,89.277405 86.787178,85.199280 89.470589,80.874077 
	C94.510559,72.750488 99.103958,64.143089 102.323517,55.176872 
	C104.160507,50.061024 103.641533,43.737030 102.850143,38.145741 
	C102.120552,32.990997 97.076263,31.997572 93.690269,36.105705 
	C91.418457,38.862041 89.473236,42.180195 88.382652,45.569031 
	C82.231216,64.683876 78.409409,84.200333 80.042809,104.416351 
	C80.318680,107.830635 81.186737,111.347099 82.537567,114.491409 
	C84.913170,120.021111 90.008171,120.895813 94.061943,116.452339 
	C96.594582,113.676247 98.384178,110.222290 100.497009,107.087624 
	C104.857689,110.784706 107.283195,110.923592 112.087326,107.269035 
	C117.306602,103.298660 122.406563,99.171448 128.459732,94.402649 
	C128.459732,97.242104 128.228561,98.848701 128.506882,100.361580 
	C129.125092,103.722221 129.791183,107.107956 130.907333,110.320320 
	C131.202850,111.170876 133.570343,112.158745 134.331543,111.777161 
	C135.322708,111.280289 136.009216,109.523109 136.167419,108.227760 
	C136.289795,107.225876 135.398636,106.100204 134.640610,104.298927 
M29.341740,103.925598 
	C24.780001,93.566940 27.612326,83.671669 31.498985,73.981766 
	C36.780197,60.815079 44.980206,49.851738 57.670826,43.032104 
	C64.425781,39.402157 64.903152,39.963051 66.999611,47.089703 
	C67.237457,47.898216 67.945854,48.819408 68.677216,49.142529 
	C69.157188,49.354595 70.709488,48.548405 70.693100,48.260078 
	C70.500809,44.875931 70.944229,41.059479 69.476555,38.276474 
	C68.411674,36.257236 64.724045,34.573032 62.242786,34.621651 
	C59.325924,34.678806 56.127571,36.307312 53.606300,38.055038 
	C35.943287,50.298882 26.357727,67.664497 22.810865,88.498573 
	C22.074404,92.824516 22.419762,97.485664 23.085331,101.867966 
	C24.491606,111.127289 31.532698,116.392838 40.907639,115.261757 
	C45.996246,114.647835 51.063835,113.486740 55.988800,112.050774 
	C58.359058,111.359688 61.193859,109.967529 62.405022,108.015808 
	C66.400963,101.576538 69.707664,94.712509 73.385735,88.070663 
	C74.190811,86.616844 75.554428,85.481262 76.446953,84.064400 
	C77.311554,82.691856 77.900764,81.145828 78.610916,79.675987 
	C77.293739,79.045097 75.959526,77.838516 74.662155,77.876907 
	C66.349098,78.122864 58.047058,78.722717 49.734814,79.025589 
	C47.011467,79.124817 45.821548,80.093018 45.833454,82.886665 
	C45.846279,85.895409 47.694767,85.867500 49.846954,85.848839 
	C55.968010,85.795753 62.089821,85.830208 68.180992,85.830208 
	C67.107994,100.228065 52.560665,111.660812 38.002159,108.677048 
	C35.112034,108.084717 32.533031,105.974319 29.341740,103.925598 
M493.972443,92.532082 
	C492.051331,96.788116 490.130219,101.044151 487.946503,105.882019 
	C483.962585,107.091469 481.813904,104.604195 481.072479,100.059669 
	C480.778351,98.256859 480.407135,96.460129 479.951935,94.691277 
	C478.328613,88.383881 476.386963,87.639053 471.007996,91.398735 
	C467.000763,94.199646 463.109650,97.166695 459.758392,99.625664 
	C457.146790,95.663994 455.419922,90.173492 452.569763,89.510292 
	C449.586487,88.816124 445.523987,92.759895 441.834137,94.729317 
	C441.834137,92.145424 441.977203,88.872536 441.750092,85.625549 
	C441.678619,84.604248 440.613495,83.652466 440.003174,82.668861 
	C439.326660,83.641197 438.193542,84.549911 438.047760,85.596207 
	C437.106323,92.352058 436.212555,99.125328 435.701172,105.922821 
	C435.572144,107.638145 436.891632,109.462440 437.545441,111.236641 
	C438.853455,109.841118 440.622955,108.657761 441.380768,107.009315 
	C443.448364,102.511620 444.793213,97.564133 450.457703,96.246277 
	C450.870941,96.591301 451.210144,96.755234 451.368805,97.025246 
	C453.122925,100.010826 454.849030,103.012871 456.582733,106.010460 
	C459.770813,104.122711 463.026154,102.338867 466.133575,100.326591 
	C473.698029,95.428085 473.670441,95.385414 476.342743,103.937836 
	C478.899841,112.121689 484.363007,113.654488 490.757935,107.909386 
	C493.618835,111.009140 496.774780,110.178154 499.767548,108.264771 
	C502.140991,106.747345 504.283051,104.866798 506.520020,103.137306 
	C510.081635,100.383636 513.636719,97.621437 517.088989,94.944702 
	C517.937500,100.272903 518.391968,104.880333 519.564758,109.297050 
	C519.869751,110.445869 522.416870,110.999344 523.934204,111.826271 
	C524.277588,110.083138 524.940857,108.332840 524.902039,106.598267 
	C524.801025,102.088188 523.965332,97.557007 524.258911,93.089188 
	C524.446777,90.229881 526.311462,87.516647 527.040894,84.640648 
	C527.365295,83.361847 527.207031,81.389633 526.408203,80.573303 
	C525.740417,79.890846 523.820801,80.433258 522.087952,80.433258 
	C520.485413,75.906342 516.420044,76.354874 512.440430,77.557480 
	C504.567627,79.936577 499.299255,85.752197 493.972443,92.532082 
M167.580215,116.611702 
	C168.848709,118.324028 170.117188,120.036354 171.385666,121.748688 
	C172.883331,119.797478 174.679016,117.994972 175.757141,115.834412 
	C176.324448,114.697517 175.813278,112.895103 175.489487,111.460838 
	C172.582794,98.585365 172.571152,86.175789 180.622971,74.798195 
	C182.233383,72.522614 183.262131,69.819374 184.446335,67.261131 
	C188.360062,58.806297 190.402328,50.006718 189.013763,40.645607 
	C188.546341,37.494308 187.193085,34.189484 183.707611,34.615200 
	C181.518295,34.882603 178.700333,37.285522 177.805191,39.418835 
	C175.641449,44.575565 174.008255,50.052761 172.947617,55.552425 
	C171.196365,64.632965 170.065216,73.833092 168.671173,82.992966 
	C159.375504,80.405357 153.985641,82.401558 148.898987,90.614304 
	C147.255157,93.268372 145.892944,96.179276 144.912109,99.141617 
	C143.545822,103.268021 142.227615,108.158340 145.987976,111.254189 
	C150.090912,114.632050 154.130249,111.160004 157.678650,108.839577 
	C160.894913,106.736351 163.858047,104.246033 167.406799,101.568764 
	C167.406799,106.876266 167.406799,111.327118 167.580215,116.611702 
M299.780701,112.244743 
	C304.816254,109.780075 309.957642,107.498627 314.801361,104.701721 
	C315.813995,104.116997 315.728424,101.630386 316.148895,100.020210 
	C314.730133,100.063820 312.850555,99.531288 311.963989,100.240326 
	C303.248230,107.210884 292.655060,108.016937 282.309509,109.217743 
	C273.079590,110.289040 267.138367,103.472969 269.697083,94.418243 
	C275.938385,72.331642 288.385712,54.554878 308.137207,42.361908 
	C313.238373,39.212875 315.243164,40.478996 316.209351,46.548218 
	C316.402039,47.758568 317.693512,48.794006 318.478333,49.910099 
	C319.311401,48.804405 320.637939,47.803440 320.898407,46.576221 
	C322.748535,37.858437 316.822113,32.614567 308.334503,35.372700 
	C306.936523,35.827003 305.595612,36.564579 304.348602,37.359821 
	C284.567688,49.974533 273.415985,69.027527 265.787903,90.369133 
	C264.286835,94.568764 265.090790,99.961586 266.004028,104.571915 
	C267.535797,112.305054 272.028259,115.811089 279.830170,115.364052 
	C286.256622,114.995819 292.618378,113.497414 299.780701,112.244743 
M625.507507,45.940269 
	C626.305359,45.340576 627.019836,44.519440 627.916382,44.181614 
	C630.920532,43.049568 633.989685,42.090118 637.033997,41.064598 
	C637.644409,43.273586 638.159363,45.515949 638.914001,47.674541 
	C639.201111,48.495754 640.213684,49.803707 640.590820,49.706562 
	C641.516968,49.467957 642.646667,48.712379 643.026245,47.865330 
	C646.154053,40.884453 641.688660,34.234940 634.182861,34.927364 
	C631.657166,35.160362 628.968933,36.105190 626.809937,37.453331 
	C607.212158,49.690868 596.330261,68.595131 588.541016,89.426163 
	C586.819397,94.030289 587.733704,99.964836 588.599976,105.089729 
	C589.382812,109.721115 592.117004,114.221146 597.411255,114.828453 
	C611.959900,116.497322 625.477112,113.255661 637.463867,104.685394 
	C638.493713,103.949074 638.320557,101.530128 638.706177,99.892815 
	C637.247681,99.995392 635.345032,99.537979 634.399780,100.287666 
	C625.524048,107.327339 614.766846,108.092720 604.259766,109.258148 
	C596.643188,110.102974 591.540894,105.190643 591.747009,97.786362 
	C591.837463,94.534966 592.554810,91.100044 593.840942,88.116318 
	C600.888306,71.767281 609.664062,56.623589 625.507507,45.940269 
M759.544800,96.023743 
	C761.950684,94.194290 764.356506,92.364838 766.762390,90.535385 
	C767.861755,93.379128 768.969177,96.219803 770.052429,99.069664 
	C770.228149,99.532089 770.201111,100.087029 770.430542,100.511108 
	C772.079834,103.559212 773.771179,106.584572 775.449219,109.617119 
	C778.624084,107.850960 781.796997,106.081337 784.977356,104.325157 
	C785.234680,104.183022 785.542786,104.132904 785.831970,104.054268 
	C789.797241,113.760277 796.917175,115.420235 805.263977,108.630844 
	C812.248535,102.949532 817.054016,93.043251 809.772095,84.230156 
	C809.357178,83.728004 808.858215,83.123421 808.798462,82.526489 
	C808.250549,77.051643 804.515259,78.152710 802.216980,80.178719 
	C797.417358,84.409653 793.281067,89.394363 788.885742,94.082092 
	C786.105103,97.047691 783.493103,100.189590 780.538147,102.968132 
	C777.972412,105.380638 775.855042,104.340530 775.080444,101.168961 
	C774.176514,97.467903 773.562012,93.685921 773.009033,89.911644 
	C772.049255,83.361221 769.578186,82.097572 764.094299,85.935944 
	C760.611694,88.373581 757.526550,91.379181 753.446716,94.818306 
	C753.446716,90.343536 753.548767,86.773102 753.386108,83.214775 
	C753.335632,82.111885 752.566162,81.041862 752.125916,79.956795 
	C751.197632,80.696167 749.585754,81.325562 749.446411,82.191833 
	C747.979553,91.310661 746.747925,100.467300 745.451294,109.613495 
	C746.024658,109.951523 746.598022,110.289551 747.171387,110.627579 
	C748.628662,109.444679 750.352112,108.472641 751.489685,107.036560 
	C754.162659,103.662201 756.555603,100.066101 759.544800,96.023743 
M556.191956,78.875061 
	C544.582947,79.582268 533.535706,93.119949 536.159973,104.382393 
	C536.897522,107.547508 540.149048,111.647324 543.026550,112.421059 
	C546.909546,113.465164 551.558411,111.781113 555.841309,111.049660 
	C556.314941,110.968765 557.022339,109.239532 556.759827,108.676819 
	C556.471741,108.059540 555.166077,107.578590 554.337830,107.626366 
	C552.869812,107.711044 551.444397,108.384247 549.971313,108.557037 
	C545.102783,109.128105 542.478577,106.953781 541.744568,101.839302 
	C548.400757,99.699791 554.059814,95.956833 557.572327,89.891228 
	C559.528442,86.513245 561.782471,82.349030 556.191956,78.875061 
M648.423279,93.006500 
	C647.575867,94.983826 646.536743,96.903374 645.919739,98.950150 
	C644.512207,103.619293 645.060974,107.951263 649.282227,111.005684 
	C653.330627,113.935059 657.495117,112.925316 661.444580,110.641617 
	C672.163269,104.443840 674.806152,94.771248 668.739136,84.204376 
	C668.492493,83.774849 668.133423,83.397057 667.952148,82.944862 
	C666.026489,78.141838 664.264160,77.374023 660.325684,80.739235 
	C656.194763,84.268867 652.655579,88.491058 648.423279,93.006500 
M716.635986,88.525574 
	C716.251587,85.938721 715.000244,83.078590 715.707275,80.835800 
	C716.547058,78.172150 719.172546,76.499893 722.589478,77.956284 
	C723.057556,78.155785 724.855774,76.825844 724.804321,76.332657 
	C724.685425,75.192162 723.988403,73.373093 723.205444,73.188599 
	C721.359375,72.753540 719.123169,72.583527 717.404297,73.243202 
	C710.417542,75.924721 707.560974,84.701569 711.435120,91.204781 
	C712.616699,93.188316 714.289001,94.873795 715.660522,96.751389 
	C717.510315,99.283859 719.734070,101.740120 717.466675,105.208717 
	C715.264343,108.577881 712.104492,109.431808 708.367310,108.869621 
	C706.512939,108.590668 704.671936,108.222778 702.824890,107.895126 
	C702.530212,108.397545 702.235535,108.899971 701.940857,109.402390 
	C703.338196,110.630791 704.645386,112.753693 706.151245,112.905457 
	C709.513550,113.244308 713.204834,113.283409 716.351746,112.224785 
	C724.992188,109.318123 727.005005,102.377579 721.760681,94.956429 
	C720.327209,92.927948 718.622498,91.091171 716.635986,88.525574 
M421.778320,83.253723 
	C419.423462,86.346024 417.068604,89.438324 414.158508,93.259735 
	C413.820374,87.067245 413.626923,81.816948 413.161530,76.590874 
	C413.078735,75.661194 411.866547,74.832085 411.175873,73.956535 
	C410.728271,74.871887 409.950714,75.765144 409.887726,76.706238 
	C409.532959,82.006935 409.237030,87.317116 409.141998,92.628006 
	C409.055878,97.442360 409.134186,102.268822 409.420532,107.073219 
	C409.480804,108.084702 410.762451,109.023392 411.481323,109.995636 
	C412.403595,109.188766 413.546448,108.523926 414.184052,107.533745 
	C414.782074,106.604958 414.647736,105.227272 415.176788,104.227646 
	C418.413849,98.111366 421.461365,91.858864 425.238434,86.087898 
	C426.264740,84.519798 429.559021,84.336693 431.871216,83.749466 
	C433.116394,83.433220 434.486145,83.607521 435.799713,83.560493 
	C435.137604,82.166206 434.821564,80.364395 433.748932,79.453568 
	C430.447968,76.650482 427.141235,77.703651 421.778320,83.253723 
M679.947510,86.217361 
	C679.786377,92.534988 679.461365,98.855606 679.576477,105.168175 
	C679.606201,106.796806 681.018494,108.400230 681.795593,110.015244 
	C682.883484,108.541664 684.170776,107.174492 685.024231,105.575752 
	C688.437744,99.181404 691.515320,92.598381 695.149841,86.336250 
	C696.494690,84.019035 698.709961,81.832390 702.238525,83.650703 
	C703.194702,84.143471 704.734619,83.503357 706.006653,83.383224 
	C705.422180,82.104973 705.170288,80.422058 704.194397,79.620033 
	C700.412048,76.511398 696.868896,78.113274 694.072083,81.130997 
	C690.758423,84.706444 687.878235,88.683762 684.810181,92.486885 
	C683.620850,87.044060 683.727356,81.791542 683.517578,76.551697 
	C683.481934,75.662514 682.087646,74.827721 681.321106,73.967796 
	C680.872498,74.906548 680.096741,75.825012 680.036987,76.787880 
	C679.862061,79.608253 679.972290,82.446312 679.947510,86.217361 
M730.318176,104.987633 
	C731.367737,106.313515 732.417297,107.639404 733.466797,108.965302 
	C734.303650,107.387688 735.609741,105.889702 735.893372,104.218208 
	C736.937134,98.066635 737.699646,91.864258 738.420715,85.663857 
	C738.549316,84.557793 737.977783,83.370300 737.729553,82.220421 
	C736.648071,82.955513 734.840698,83.507698 734.601929,84.455147 
	C732.961426,90.965370 731.649170,97.558304 730.318176,104.987633 
M734.970703,69.389328 
	C736.251953,69.791405 737.533142,70.193474 738.814392,70.595566 
	C739.422302,68.607155 740.209961,66.645081 740.507874,64.611267 
	C740.579651,64.121178 738.468689,62.745861 738.314941,62.878944 
	C737.224304,63.823196 736.279114,64.989166 735.501709,66.219780 
	C735.092285,66.867630 735.113953,67.787796 734.970703,69.389328 
z"/>
<path fill="#2B2B2B" opacity="1.000000" stroke="none" 
	d="
M333.822205,38.887650 
	C334.554138,37.163574 335.103119,35.770863 335.808655,34.462570 
	C337.268463,31.755569 339.169983,28.587690 342.535645,29.971769 
	C345.078705,31.017567 348.481598,33.877239 348.613129,36.100552 
	C348.923859,41.351940 348.483185,47.096813 346.541656,51.914894 
	C344.287079,57.509850 340.283478,62.455376 336.719330,67.454903 
	C330.594849,76.046028 329.149689,85.494202 330.374481,97.099373 
	C333.222229,95.020119 335.119263,93.665848 336.982361,92.266319 
	C338.976044,90.768654 340.839569,89.074066 342.934967,87.740532 
	C346.644257,85.379921 348.278198,86.246262 348.812225,90.695480 
	C349.147858,93.492218 348.802399,96.543373 349.845673,99.025024 
	C350.607910,100.838242 353.045441,102.908478 354.896759,103.074600 
	C357.593231,103.316566 360.507416,103.246269 362.198883,99.274559 
	C366.353302,89.519714 373.195251,81.836899 383.358765,77.906067 
	C386.812164,76.570427 390.824280,75.238838 393.389648,79.877487 
	C393.588501,80.237030 394.191040,80.684875 394.510895,80.620369 
	C402.447357,79.019722 398.905090,83.897659 397.893433,86.876076 
	C395.577942,93.692787 393.017975,100.342171 396.917145,107.534607 
	C397.421204,108.464447 395.868896,110.509117 395.269165,112.037376 
	C393.983765,111.304291 391.829041,110.802269 391.562195,109.798447 
	C390.355713,105.259399 389.682983,100.578468 388.674652,95.181290 
	C384.941711,98.057320 381.103821,101.004173 377.277985,103.966591 
	C375.700043,105.188416 374.206757,106.527809 372.573242,107.667999 
	C367.594818,111.142906 364.971802,110.757492 361.076904,105.967567 
	C360.088135,106.422005 359.042389,106.873688 358.021729,107.376366 
	C350.427368,111.116730 348.160492,110.143509 345.673431,102.217934 
	C345.051849,100.237061 344.121704,98.352989 342.722992,94.931198 
	C339.306244,98.601768 336.584930,101.303413 334.152374,104.243958 
	C333.131073,105.478569 333.043793,107.536308 331.950409,108.647919 
	C330.614288,110.006348 328.655548,111.523514 326.988708,111.497841 
	C325.980347,111.482307 324.171356,108.671562 324.172150,107.117432 
	C324.176147,99.144897 323.882629,91.050468 325.126465,83.226501 
	C327.469666,68.487724 330.793793,53.904900 333.822205,38.887650 
M365.992523,100.091133 
	C365.627716,100.204582 365.262909,100.318031 364.898102,100.431473 
	C365.236511,100.620621 365.574921,100.809776 366.187317,101.683449 
	C366.634979,105.292160 368.835541,104.027489 370.420715,102.946312 
	C375.737091,99.320274 381.098236,95.716286 386.078766,91.657829 
	C389.051025,89.235847 391.343689,85.979836 393.660400,83.410828 
	C387.985413,78.971733 383.021576,80.154694 379.119202,84.405632 
	C374.587006,89.342606 370.718689,94.889069 365.992523,100.091133 
M334.921051,56.197678 
	C334.685547,58.298462 334.450012,60.399246 334.135590,63.204079 
	C340.189606,58.635689 343.032166,52.743896 345.040863,46.414810 
	C345.769897,44.117756 346.262848,41.447124 345.796875,39.164726 
	C345.429321,37.364422 343.427094,35.897869 342.150879,34.283092 
	C340.819031,35.613598 338.696716,36.742908 338.297638,38.310829 
	C336.873718,43.905228 336.035187,49.648617 334.921051,56.197678 
z"/>
<path fill="#2A2A2A" opacity="1.000000" stroke="none" 
	d="
M134.799332,104.664246 
	C135.398636,106.100204 136.289795,107.225876 136.167419,108.227760 
	C136.009216,109.523109 135.322708,111.280289 134.331543,111.777161 
	C133.570343,112.158745 131.202850,111.170876 130.907333,110.320320 
	C129.791183,107.107956 129.125092,103.722221 128.506882,100.361580 
	C128.228561,98.848701 128.459732,97.242104 128.459732,94.402649 
	C122.406563,99.171448 117.306602,103.298660 112.087326,107.269035 
	C107.283195,110.923592 104.857689,110.784706 100.497009,107.087624 
	C98.384178,110.222290 96.594582,113.676247 94.061943,116.452339 
	C90.008171,120.895813 84.913170,120.021111 82.537567,114.491409 
	C81.186737,111.347099 80.318680,107.830635 80.042809,104.416351 
	C78.409409,84.200333 82.231216,64.683876 88.382652,45.569031 
	C89.473236,42.180195 91.418457,38.862041 93.690269,36.105705 
	C97.076263,31.997572 102.120552,32.990997 102.850143,38.145741 
	C103.641533,43.737030 104.160507,50.061024 102.323517,55.176872 
	C99.103958,64.143089 94.510559,72.750488 89.470589,80.874077 
	C86.787178,85.199280 84.863953,89.277405 85.210159,94.204216 
	C85.557709,99.150116 86.046051,104.136391 87.107475,108.965454 
	C87.911491,112.623451 90.670570,112.909912 92.920006,110.157555 
	C95.995293,106.394699 98.993217,102.468155 101.342354,98.233482 
	C106.061440,89.726601 111.988113,82.459213 120.956886,78.403038 
	C124.676872,76.720657 129.173096,74.686119 132.372055,79.865273 
	C132.592514,80.222176 133.186615,80.654625 133.518982,80.591171 
	C141.390656,79.088249 137.896301,83.855782 136.894165,86.901588 
	C135.026001,92.579651 132.619568,98.136414 134.799332,104.664246 
M113.374268,88.880875 
	C109.645576,93.158447 105.648613,97.299477 105.944717,103.925430 
	C116.561295,99.053001 125.935410,92.864876 132.572739,83.198860 
	C126.328545,78.408485 121.571930,81.194633 117.038315,85.207092 
	C115.923080,86.194115 114.914703,87.301880 113.374268,88.880875 
M96.534485,41.872875 
	C89.160980,52.173683 88.848381,64.368523 87.415306,76.376610 
	C91.101639,71.057518 94.649391,65.657196 96.982086,59.775028 
	C98.763336,55.283382 99.234879,50.206779 99.771919,45.333408 
	C99.906075,44.116074 98.046181,42.678989 96.534485,41.872875 
z"/>
<path fill="#2A2A2A" opacity="1.000000" stroke="none" 
	d="
M29.576149,104.244781 
	C32.533031,105.974319 35.112034,108.084717 38.002159,108.677048 
	C52.560665,111.660812 67.107994,100.228065 68.180992,85.830208 
	C62.089821,85.830208 55.968010,85.795753 49.846954,85.848839 
	C47.694767,85.867500 45.846279,85.895409 45.833454,82.886665 
	C45.821548,80.093018 47.011467,79.124817 49.734814,79.025589 
	C58.047058,78.722717 66.349098,78.122864 74.662155,77.876907 
	C75.959526,77.838516 77.293739,79.045097 78.610916,79.675987 
	C77.900764,81.145828 77.311554,82.691856 76.446953,84.064400 
	C75.554428,85.481262 74.190811,86.616844 73.385735,88.070663 
	C69.707664,94.712509 66.400963,101.576538 62.405022,108.015808 
	C61.193859,109.967529 58.359058,111.359688 55.988800,112.050774 
	C51.063835,113.486740 45.996246,114.647835 40.907639,115.261757 
	C31.532698,116.392838 24.491606,111.127289 23.085331,101.867966 
	C22.419762,97.485664 22.074404,92.824516 22.810865,88.498573 
	C26.357727,67.664497 35.943287,50.298882 53.606300,38.055038 
	C56.127571,36.307312 59.325924,34.678806 62.242786,34.621651 
	C64.724045,34.573032 68.411674,36.257236 69.476555,38.276474 
	C70.944229,41.059479 70.500809,44.875931 70.693100,48.260078 
	C70.709488,48.548405 69.157188,49.354595 68.677216,49.142529 
	C67.945854,48.819408 67.237457,47.898216 66.999611,47.089703 
	C64.903152,39.963051 64.425781,39.402157 57.670826,43.032104 
	C44.980206,49.851738 36.780197,60.815079 31.498985,73.981766 
	C27.612326,83.671669 24.780001,93.566940 29.576149,104.244781 
z"/>
<path fill="#2B2B2B" opacity="1.000000" stroke="none" 
	d="
M494.183533,92.238892 
	C499.299255,85.752197 504.567627,79.936577 512.440430,77.557480 
	C516.420044,76.354874 520.485413,75.906342 522.087952,80.433258 
	C523.820801,80.433258 525.740417,79.890846 526.408203,80.573303 
	C527.207031,81.389633 527.365295,83.361847 527.040894,84.640648 
	C526.311462,87.516647 524.446777,90.229881 524.258911,93.089188 
	C523.965332,97.557007 524.801025,102.088188 524.902039,106.598267 
	C524.940857,108.332840 524.277588,110.083138 523.934204,111.826271 
	C522.416870,110.999344 519.869751,110.445869 519.564758,109.297050 
	C518.391968,104.880333 517.937500,100.272903 517.088989,94.944702 
	C513.636719,97.621437 510.081635,100.383636 506.520020,103.137306 
	C504.283051,104.866798 502.140991,106.747345 499.767548,108.264771 
	C496.774780,110.178154 493.618835,111.009140 490.757935,107.909386 
	C484.363007,113.654488 478.899841,112.121689 476.342743,103.937836 
	C473.670441,95.385414 473.698029,95.428085 466.133575,100.326591 
	C463.026154,102.338867 459.770813,104.122711 456.582733,106.010460 
	C454.849030,103.012871 453.122925,100.010826 451.368805,97.025246 
	C451.210144,96.755234 450.870941,96.591301 450.457703,96.246277 
	C444.793213,97.564133 443.448364,102.511620 441.380768,107.009315 
	C440.622955,108.657761 438.853455,109.841118 437.545471,111.236649 
	C436.891632,109.462440 435.572144,107.638145 435.701172,105.922821 
	C436.212555,99.125328 437.106323,92.352058 438.047760,85.596207 
	C438.193542,84.549911 439.326660,83.641197 440.003174,82.668861 
	C440.613495,83.652466 441.678619,84.604248 441.750092,85.625549 
	C441.977203,88.872536 441.834137,92.145424 441.834137,94.729317 
	C445.523987,92.759895 449.586487,88.816124 452.569763,89.510292 
	C455.419922,90.173492 457.146790,95.663994 459.758392,99.625664 
	C463.109650,97.166695 467.000763,94.199646 471.007996,91.398735 
	C476.386963,87.639053 478.328613,88.383881 479.951935,94.691277 
	C480.407135,96.460129 480.778351,98.256859 481.072479,100.059669 
	C481.813904,104.604195 483.962585,107.091469 487.946503,105.882019 
	C490.130219,101.044151 492.051331,96.788116 494.183533,92.238892 
M494.597900,102.410889 
	C495.465485,102.846458 496.667511,103.892487 497.151276,103.627464 
	C506.798615,98.342392 515.847656,92.309692 522.659973,81.883781 
	C518.519409,81.637505 514.673645,80.216606 512.192383,81.478569 
	C503.824036,85.734619 497.804169,92.538628 494.597900,102.410889 
z"/>
<path fill="#2B2B2B" opacity="1.000000" stroke="none" 
	d="
M167.493500,116.194839 
	C167.406799,111.327118 167.406799,106.876266 167.406799,101.568764 
	C163.858047,104.246033 160.894913,106.736351 157.678650,108.839577 
	C154.130249,111.160004 150.090912,114.632050 145.987976,111.254189 
	C142.227615,108.158340 143.545822,103.268021 144.912109,99.141617 
	C145.892944,96.179276 147.255157,93.268372 148.898987,90.614304 
	C153.985641,82.401558 159.375504,80.405357 168.671173,82.992966 
	C170.065216,73.833092 171.196365,64.632965 172.947617,55.552425 
	C174.008255,50.052761 175.641449,44.575565 177.805191,39.418835 
	C178.700333,37.285522 181.518295,34.882603 183.707611,34.615200 
	C187.193085,34.189484 188.546341,37.494308 189.013763,40.645607 
	C190.402328,50.006718 188.360062,58.806297 184.446335,67.261131 
	C183.262131,69.819374 182.233383,72.522614 180.622971,74.798195 
	C172.571152,86.175789 172.582794,98.585365 175.489487,111.460838 
	C175.813278,112.895103 176.324448,114.697517 175.757141,115.834412 
	C174.679016,117.994972 172.883331,119.797478 171.385666,121.748688 
	C170.117188,120.036354 168.848709,118.324028 167.493500,116.194839 
M150.034271,96.765060 
	C149.440964,98.136635 148.529144,99.464531 148.333542,100.890656 
	C148.078720,102.748474 148.392075,104.684242 148.460938,106.586464 
	C150.222321,106.435890 152.084503,106.601646 153.727127,106.078316 
	C159.853470,104.126534 163.788803,99.410667 166.335266,93.976845 
	C167.323593,91.867859 166.232361,88.143715 164.861542,85.907417 
	C164.362717,85.093651 159.642181,85.668854 158.000092,87.015480 
	C154.994080,89.480629 152.845123,92.990891 150.034271,96.765060 
M180.320419,43.928864 
	C178.439606,53.540413 176.558777,63.151958 174.677948,72.763504 
	C175.131119,72.838676 175.584305,72.913841 176.037476,72.989014 
	C184.024338,62.306252 188.997757,44.859459 183.553513,38.199432 
	C182.518311,40.021740 181.608154,41.623905 180.320419,43.928864 
z"/>
<path fill="#2A2A2A" opacity="1.000000" stroke="none" 
	d="
M214.288269,112.841141 
	C216.606537,115.860359 213.690704,116.412415 212.080399,116.616516 
	C207.377304,117.212631 206.282639,119.801971 205.688232,124.234077 
	C204.260696,134.877914 201.050964,145.143951 193.427933,153.108261 
	C190.597565,156.065353 186.576294,158.547821 182.650665,159.643326 
	C175.907745,161.525009 171.754868,157.314957 172.335159,150.283340 
	C172.865997,143.851044 175.828308,138.447830 180.254822,134.053497 
	C185.076721,129.266678 190.040100,124.432571 195.655746,120.690453 
	C200.888275,117.203629 203.394958,113.405899 201.550888,106.928253 
	C199.707306,108.120811 197.935516,109.537788 195.943970,110.499847 
	C191.545441,112.624672 187.251862,111.014618 187.069382,106.243172 
	C186.762329,98.214012 187.706863,90.125381 188.404007,82.085968 
	C188.480377,81.205215 190.385361,80.483032 191.442200,79.687302 
	C192.104691,80.860817 193.426605,82.103325 193.312317,83.195580 
	C192.881561,87.313118 191.548370,91.366409 191.403381,95.473778 
	C191.294571,98.556404 192.488449,101.685013 193.102386,104.793144 
	C195.583038,103.110359 198.699753,101.906769 200.406693,99.641083 
	C203.573502,95.437660 205.851440,90.573288 208.643494,86.073486 
	C209.472839,84.736862 210.783600,83.698921 211.873764,82.524124 
	C212.273788,82.833672 212.673828,83.143211 213.073853,83.452759 
	C210.942627,93.352692 208.811417,103.252632 206.511215,113.937523 
	C209.775146,113.153885 211.663300,112.700562 213.917175,112.549538 
	C214.282913,112.851837 214.288269,112.841141 214.288269,112.841141 
M178.944336,155.813080 
	C181.664505,154.864731 185.038101,154.628723 186.987717,152.840363 
	C194.081650,146.333115 197.811829,137.851593 199.284073,128.403183 
	C199.491547,127.071808 198.961014,125.625427 198.612564,123.055931 
	C188.584244,130.229904 179.274185,136.584152 176.668365,148.637039 
	C176.223297,150.695602 177.673737,153.163956 178.944336,155.813080 
z"/>
<path fill="#2A2A2A" opacity="1.000000" stroke="none" 
	d="
M299.394745,112.372307 
	C292.618378,113.497414 286.256622,114.995819 279.830170,115.364052 
	C272.028259,115.811089 267.535797,112.305054 266.004028,104.571915 
	C265.090790,99.961586 264.286835,94.568764 265.787903,90.369133 
	C273.415985,69.027527 284.567688,49.974533 304.348602,37.359821 
	C305.595612,36.564579 306.936523,35.827003 308.334503,35.372700 
	C316.822113,32.614567 322.748535,37.858437 320.898407,46.576221 
	C320.637939,47.803440 319.311401,48.804405 318.478333,49.910099 
	C317.693512,48.794006 316.402039,47.758568 316.209351,46.548218 
	C315.243164,40.478996 313.238373,39.212875 308.137207,42.361908 
	C288.385712,54.554878 275.938385,72.331642 269.697083,94.418243 
	C267.138367,103.472969 273.079590,110.289040 282.309509,109.217743 
	C292.655060,108.016937 303.248230,107.210884 311.963989,100.240326 
	C312.850555,99.531288 314.730133,100.063820 316.148926,100.020210 
	C315.728424,101.630386 315.813995,104.116997 314.801361,104.701721 
	C309.957642,107.498627 304.816254,109.780075 299.394745,112.372307 
z"/>
<path fill="#2A2A2A" opacity="1.000000" stroke="none" 
	d="
M625.200500,46.130257 
	C609.664062,56.623589 600.888306,71.767281 593.840942,88.116318 
	C592.554810,91.100044 591.837463,94.534966 591.747009,97.786362 
	C591.540894,105.190643 596.643188,110.102974 604.259766,109.258148 
	C614.766846,108.092720 625.524048,107.327339 634.399780,100.287666 
	C635.345032,99.537979 637.247681,99.995392 638.706177,99.892822 
	C638.320557,101.530128 638.493713,103.949074 637.463867,104.685394 
	C625.477112,113.255661 611.959900,116.497322 597.411255,114.828453 
	C592.117004,114.221146 589.382812,109.721115 588.599976,105.089729 
	C587.733704,99.964836 586.819397,94.030289 588.541016,89.426163 
	C596.330261,68.595131 607.212158,49.690868 626.809937,37.453331 
	C628.968933,36.105190 631.657166,35.160362 634.182861,34.927364 
	C641.688660,34.234940 646.154053,40.884453 643.026245,47.865330 
	C642.646667,48.712379 641.516968,49.467957 640.590820,49.706562 
	C640.213684,49.803707 639.201111,48.495754 638.914001,47.674541 
	C638.159363,45.515949 637.644409,43.273586 637.033997,41.064594 
	C633.989685,42.090118 630.920532,43.049568 627.916382,44.181614 
	C627.019836,44.519440 626.305359,45.340576 625.200500,46.130257 
z"/>
<path fill="#2B2B2B" opacity="1.000000" stroke="none" 
	d="
M759.303345,96.291733 
	C756.555603,100.066101 754.162659,103.662201 751.489685,107.036560 
	C750.352112,108.472641 748.628662,109.444679 747.171387,110.627579 
	C746.598022,110.289551 746.024658,109.951523 745.451294,109.613495 
	C746.747925,100.467300 747.979553,91.310661 749.446411,82.191833 
	C749.585754,81.325562 751.197632,80.696167 752.125916,79.956795 
	C752.566162,81.041862 753.335632,82.111885 753.386108,83.214775 
	C753.548767,86.773102 753.446716,90.343536 753.446716,94.818306 
	C757.526550,91.379181 760.611694,88.373581 764.094299,85.935944 
	C769.578186,82.097572 772.049255,83.361221 773.009033,89.911644 
	C773.562012,93.685921 774.176514,97.467903 775.080444,101.168961 
	C775.855042,104.340530 777.972412,105.380638 780.538147,102.968132 
	C783.493103,100.189590 786.105103,97.047691 788.885742,94.082092 
	C793.281067,89.394363 797.417358,84.409653 802.216980,80.178719 
	C804.515259,78.152710 808.250549,77.051643 808.798462,82.526489 
	C808.858215,83.123421 809.357178,83.728004 809.772095,84.230156 
	C817.054016,93.043251 812.248535,102.949532 805.263977,108.630844 
	C796.917175,115.420235 789.797241,113.760277 785.829651,104.047150 
	C785.542786,104.132904 785.234680,104.183022 784.977356,104.325157 
	C781.796997,106.081337 778.624084,107.850960 775.449219,109.617126 
	C773.771179,106.584572 772.079834,103.559212 770.430542,100.511108 
	C770.201111,100.087029 770.228149,99.532089 770.052429,99.069664 
	C768.969177,96.219803 767.861755,93.379128 766.762390,90.535385 
	C764.356506,92.364838 761.950684,94.194290 759.303345,96.291733 
M794.723022,108.114052 
	C801.952759,107.802620 805.999695,103.102020 808.979980,97.332214 
	C811.562256,92.333038 808.631226,88.499855 805.406616,84.462608 
	C799.796936,88.740822 794.754761,93.329964 792.873230,100.151161 
	C792.239502,102.448463 793.529907,105.276505 794.723022,108.114052 
z"/>
<path fill="#292929" opacity="1.000000" stroke="none" 
	d="
M556.599854,78.921234 
	C561.782471,82.349030 559.528442,86.513245 557.572327,89.891228 
	C554.059814,95.956833 548.400757,99.699791 541.744568,101.839302 
	C542.478577,106.953781 545.102783,109.128105 549.971313,108.557037 
	C551.444397,108.384247 552.869812,107.711044 554.337830,107.626366 
	C555.166077,107.578590 556.471741,108.059540 556.759827,108.676819 
	C557.022339,109.239532 556.314941,110.968765 555.841309,111.049660 
	C551.558411,111.781113 546.909546,113.465164 543.026550,112.421059 
	C540.149048,111.647324 536.897522,107.547508 536.159973,104.382393 
	C533.535706,93.119949 544.582947,79.582268 556.599854,78.921234 
M545.698792,89.269836 
	C544.733398,91.021194 543.768005,92.772552 542.566284,94.952690 
	C550.219604,93.791573 554.409485,89.534958 553.992920,82.375313 
	C550.888000,84.841766 548.493713,86.743736 545.698792,89.269836 
z"/>
<path fill="#2D2D2D" opacity="1.000000" stroke="none" 
	d="
M648.640564,92.708542 
	C652.655579,88.491058 656.194763,84.268867 660.325684,80.739235 
	C664.264160,77.374023 666.026489,78.141838 667.952148,82.944862 
	C668.133423,83.397057 668.492493,83.774849 668.739136,84.204376 
	C674.806152,94.771248 672.163269,104.443840 661.444580,110.641617 
	C657.495117,112.925316 653.330627,113.935059 649.282227,111.005684 
	C645.060974,107.951263 644.512207,103.619293 645.919739,98.950150 
	C646.536743,96.903374 647.575867,94.983826 648.640564,92.708542 
M664.305176,102.773483 
	C670.522888,95.239357 670.478699,90.663124 663.945251,84.781052 
	C658.309631,89.248779 653.150146,94.164581 651.372375,101.460609 
	C650.928772,103.281120 651.427979,106.286537 652.669861,107.285744 
	C653.840637,108.227783 656.725647,107.680092 658.554382,106.988655 
	C660.494324,106.255188 662.078491,104.580864 664.305176,102.773483 
z"/>
<path fill="#2B2B2B" opacity="1.000000" stroke="none" 
	d="
M214.741516,112.778282 
	C214.288269,112.841141 214.282913,112.851837 214.272125,112.843857 
	C214.020920,111.408928 213.780487,109.981987 213.401733,107.733986 
	C215.632431,108.165123 217.307587,108.524612 218.995529,108.807930 
	C222.900024,109.463310 226.283783,108.740685 228.537964,105.104584 
	C230.696274,101.623047 228.433472,99.155212 226.576935,96.623955 
	C225.298996,94.881599 223.685226,93.346252 222.629929,91.486641 
	C217.848190,83.060524 221.835953,77.619911 228.148285,73.404770 
	C229.552811,72.466881 232.073410,72.660698 233.889694,73.107521 
	C234.793030,73.329742 235.265182,75.304680 235.932388,76.486740 
	C234.914871,76.962860 233.908646,77.465179 232.877441,77.909538 
	C230.815125,78.798248 227.846054,79.118225 226.912079,80.671570 
	C225.915070,82.329735 226.391907,85.278030 227.054047,87.405182 
	C227.608521,89.186455 229.296249,90.647873 230.588074,92.160484 
	C234.299576,96.506393 237.627426,101.248016 234.331879,106.975853 
	C231.081329,112.625465 225.226685,113.741890 219.121750,113.435448 
	C217.804031,113.369301 216.503296,112.964325 214.741516,112.778282 
z"/>
<path fill="#292929" opacity="1.000000" stroke="none" 
	d="
M716.839111,88.845993 
	C718.622498,91.091171 720.327209,92.927948 721.760681,94.956429 
	C727.005005,102.377579 724.992188,109.318123 716.351746,112.224785 
	C713.204834,113.283409 709.513550,113.244308 706.151245,112.905457 
	C704.645386,112.753693 703.338196,110.630791 701.940857,109.402390 
	C702.235535,108.899971 702.530212,108.397545 702.824890,107.895126 
	C704.671936,108.222778 706.512939,108.590668 708.367310,108.869621 
	C712.104492,109.431808 715.264343,108.577881 717.466675,105.208717 
	C719.734070,101.740120 717.510315,99.283859 715.660522,96.751389 
	C714.289001,94.873795 712.616699,93.188316 711.435120,91.204781 
	C707.560974,84.701569 710.417542,75.924721 717.404297,73.243202 
	C719.123169,72.583527 721.359375,72.753540 723.205444,73.188599 
	C723.988403,73.373093 724.685425,75.192162 724.804321,76.332657 
	C724.855774,76.825844 723.057556,78.155785 722.589478,77.956284 
	C719.172546,76.499893 716.547058,78.172150 715.707275,80.835800 
	C715.000244,83.078590 716.251587,85.938721 716.839111,88.845993 
z"/>
<path fill="#2E2E2E" opacity="1.000000" stroke="none" 
	d="
M422.014832,82.982025 
	C427.141235,77.703651 430.447968,76.650482 433.748932,79.453568 
	C434.821564,80.364395 435.137604,82.166206 435.799713,83.560493 
	C434.486145,83.607521 433.116394,83.433220 431.871216,83.749466 
	C429.559021,84.336693 426.264740,84.519798 425.238434,86.087898 
	C421.461365,91.858864 418.413849,98.111366 415.176788,104.227646 
	C414.647736,105.227272 414.782074,106.604958 414.184052,107.533745 
	C413.546448,108.523926 412.403595,109.188766 411.481323,109.995628 
	C410.762451,109.023392 409.480804,108.084702 409.420532,107.073219 
	C409.134186,102.268822 409.055878,97.442360 409.141998,92.628006 
	C409.237030,87.317116 409.532959,82.006935 409.887726,76.706238 
	C409.950714,75.765144 410.728271,74.871887 411.175873,73.956543 
	C411.866547,74.832085 413.078735,75.661194 413.161530,76.590874 
	C413.626923,81.816948 413.820374,87.067245 414.158508,93.259735 
	C417.068604,89.438324 419.423462,86.346024 422.014832,82.982025 
z"/>
<path fill="#2D2D2D" opacity="1.000000" stroke="none" 
	d="
M679.959167,85.747406 
	C679.972290,82.446312 679.862061,79.608253 680.036987,76.787880 
	C680.096741,75.825012 680.872498,74.906548 681.321106,73.967804 
	C682.087646,74.827721 683.481934,75.662514 683.517578,76.551697 
	C683.727356,81.791542 683.620850,87.044060 684.810181,92.486885 
	C687.878235,88.683762 690.758423,84.706444 694.072083,81.130997 
	C696.868896,78.113274 700.412048,76.511398 704.194397,79.620033 
	C705.170288,80.422058 705.422180,82.104973 706.006653,83.383224 
	C704.734619,83.503357 703.194702,84.143471 702.238525,83.650703 
	C698.709961,81.832390 696.494690,84.019035 695.149841,86.336250 
	C691.515320,92.598381 688.437744,99.181404 685.024231,105.575752 
	C684.170776,107.174492 682.883484,108.541664 681.795654,110.015244 
	C681.018494,108.400230 679.606201,106.796806 679.576477,105.168175 
	C679.461365,98.855606 679.786377,92.534988 679.959167,85.747406 
z"/>
<path fill="#303030" opacity="1.000000" stroke="none" 
	d="
M730.274658,104.556122 
	C731.649170,97.558304 732.961426,90.965370 734.601929,84.455147 
	C734.840698,83.507698 736.648071,82.955513 737.729553,82.220413 
	C737.977783,83.370300 738.549316,84.557793 738.420715,85.663857 
	C737.699646,91.864258 736.937134,98.066635 735.893372,104.218208 
	C735.609741,105.889702 734.303650,107.387688 733.466797,108.965302 
	C732.417297,107.639404 731.367737,106.313515 730.274658,104.556122 
z"/>
<path fill="#303030" opacity="1.000000" stroke="none" 
	d="
M734.955872,68.987167 
	C735.113953,67.787796 735.092285,66.867630 735.501709,66.219780 
	C736.279114,64.989166 737.224304,63.823196 738.314941,62.878944 
	C738.468689,62.745861 740.579651,64.121178 740.507874,64.611267 
	C740.209961,66.645081 739.422302,68.607155 738.814392,70.595551 
	C737.533142,70.193474 736.251953,69.791405 734.955872,68.987167 
z"/>
<path fill="#F5F5F5" opacity="1.000000" stroke="none" 
	d="
M366.562225,100.170990 
	C370.718689,94.889069 374.587006,89.342606 379.119202,84.405632 
	C383.021576,80.154694 387.985413,78.971733 393.660400,83.410828 
	C391.343689,85.979836 389.051025,89.235847 386.078766,91.657829 
	C381.098236,95.716286 375.737091,99.320274 370.420715,102.946312 
	C368.835541,104.027489 366.634979,105.292160 366.278564,101.185944 
	C366.433960,100.515961 366.498108,100.343475 366.562225,100.170990 
z"/>
<path fill="#F6F6F6" opacity="1.000000" stroke="none" 
	d="
M334.948059,55.766651 
	C336.035187,49.648617 336.873718,43.905228 338.297638,38.310829 
	C338.696716,36.742908 340.819031,35.613598 342.150879,34.283089 
	C343.427094,35.897869 345.429321,37.364422 345.796875,39.164726 
	C346.262848,41.447124 345.769897,44.117756 345.040863,46.414810 
	C343.032166,52.743896 340.189606,58.635689 334.135590,63.204079 
	C334.450012,60.399246 334.685547,58.298462 334.948059,55.766651 
z"/>
<path fill="#2E2E2E" opacity="1.000000" stroke="none" 
	d="
M366.277374,100.131058 
	C366.498108,100.343475 366.433960,100.515961 366.141602,100.843689 
	C365.574921,100.809776 365.236511,100.620621 364.898102,100.431473 
	C365.262909,100.318031 365.627716,100.204582 366.277374,100.131058 
z"/>
<path fill="#F5F5F5" opacity="1.000000" stroke="none" 
	d="
M113.615738,88.617508 
	C114.914703,87.301880 115.923080,86.194115 117.038315,85.207092 
	C121.571930,81.194633 126.328545,78.408485 132.572739,83.198860 
	C125.935410,92.864876 116.561295,99.053001 105.944717,103.925430 
	C105.648613,97.299477 109.645576,93.158447 113.615738,88.617508 
z"/>
<path fill="#F5F5F5" opacity="1.000000" stroke="none" 
	d="
M96.818634,41.607887 
	C98.046181,42.678989 99.906075,44.116074 99.771919,45.333408 
	C99.234879,50.206779 98.763336,55.283382 96.982086,59.775028 
	C94.649391,65.657196 91.101639,71.057518 87.415306,76.376610 
	C88.848381,64.368523 89.160980,52.173683 96.818634,41.607887 
z"/>
<path fill="#F6F6F6" opacity="1.000000" stroke="none" 
	d="
M494.632080,102.006851 
	C497.804169,92.538628 503.824036,85.734619 512.192383,81.478569 
	C514.673645,80.216606 518.519409,81.637505 522.659973,81.883781 
	C515.847656,92.309692 506.798615,98.342392 497.151276,103.627464 
	C496.667511,103.892487 495.465485,102.846458 494.632080,102.006851 
z"/>
<path fill="#F8F8F8" opacity="1.000000" stroke="none" 
	d="
M150.186523,96.415207 
	C152.845123,92.990891 154.994080,89.480629 158.000092,87.015480 
	C159.642181,85.668854 164.362717,85.093651 164.861542,85.907417 
	C166.232361,88.143715 167.323593,91.867859 166.335266,93.976845 
	C163.788803,99.410667 159.853470,104.126534 153.727127,106.078316 
	C152.084503,106.601646 150.222321,106.435890 148.460938,106.586464 
	C148.392075,104.684242 148.078720,102.748474 148.333542,100.890656 
	C148.529144,99.464531 149.440964,98.136635 150.186523,96.415207 
z"/>
<path fill="#F1F1F1" opacity="1.000000" stroke="none" 
	d="
M180.509216,43.577469 
	C181.608154,41.623905 182.518311,40.021740 183.553513,38.199432 
	C188.997757,44.859459 184.024338,62.306252 176.037476,72.989014 
	C175.584305,72.913841 175.131119,72.838676 174.677948,72.763504 
	C176.558777,63.151958 178.439606,53.540413 180.509216,43.577469 
z"/>
<path fill="#F8F8F8" opacity="1.000000" stroke="none" 
	d="
M178.596420,155.628052 
	C177.673737,153.163956 176.223297,150.695602 176.668365,148.637039 
	C179.274185,136.584152 188.584244,130.229904 198.612564,123.055931 
	C198.961014,125.625427 199.491547,127.071808 199.284073,128.403183 
	C197.811829,137.851593 194.081650,146.333115 186.987717,152.840363 
	C185.038101,154.628723 181.664505,154.864731 178.596420,155.628052 
z"/>
<path fill="#F8F8F8" opacity="1.000000" stroke="none" 
	d="
M794.332031,107.988022 
	C793.529907,105.276505 792.239502,102.448463 792.873230,100.151161 
	C794.754761,93.329964 799.796936,88.740822 805.406616,84.462608 
	C808.631226,88.499855 811.562256,92.333038 808.979980,97.332214 
	C805.999695,103.102020 801.952759,107.802620 794.332031,107.988022 
z"/>
<path fill="#EEEEEE" opacity="1.000000" stroke="none" 
	d="
M545.899109,88.957771 
	C548.493713,86.743736 550.888000,84.841766 553.992920,82.375313 
	C554.409485,89.534958 550.219604,93.791573 542.566284,94.952690 
	C543.768005,92.772552 544.733398,91.021194 545.899109,88.957771 
z"/>
<path fill="#F8F8F8" opacity="1.000000" stroke="none" 
	d="
M664.061584,103.045448 
	C662.078491,104.580864 660.494324,106.255188 658.554382,106.988655 
	C656.725647,107.680092 653.840637,108.227783 652.669861,107.285744 
	C651.427979,106.286537 650.928772,103.281120 651.372375,101.460609 
	C653.150146,94.164581 658.309631,89.248779 663.945251,84.781052 
	C670.478699,90.663124 670.522888,95.239357 664.061584,103.045448 
z"/>
</svg>